<svg width="109" height="116" viewBox="0 0 109 116" fill="none" xmlns="http://www.w3.org/2000/svg">
<path d="M9.30162 30.1185L54.5 2.34736L99.6984 30.1185V85.8815L54.5 113.653L9.30162 85.8815V30.1185Z" stroke="#64FFDA" stroke-width="4"/>
<path d="M62.1484 65.375C62.1484 64.5781 62.0234 63.875 61.7734 63.2656C61.5391 62.6406 61.1172 62.0781 60.5078 61.5781C59.9141 61.0781 59.0859 60.6016 58.0234 60.1484C56.9766 59.6953 55.6484 59.2344 54.0391 58.7656C52.3516 58.2656 50.8281 57.7109 49.4688 57.1016C48.1094 56.4766 46.9453 55.7656 45.9766 54.9688C45.0078 54.1719 44.2656 53.2578 43.75 52.2266C43.2344 51.1953 42.9766 50.0156 42.9766 48.6875C42.9766 47.3594 43.25 46.1328 43.7969 45.0078C44.3438 43.8828 45.125 42.9062 46.1406 42.0781C47.1719 41.2344 48.3984 40.5781 49.8203 40.1094C51.2422 39.6406 52.8281 39.4062 54.5781 39.4062C57.1406 39.4062 59.3125 39.8984 61.0938 40.8828C62.8906 41.8516 64.2578 43.125 65.1953 44.7031C66.1328 46.2656 66.6016 47.9375 66.6016 49.7188H62.1016C62.1016 48.4375 61.8281 47.3047 61.2812 46.3203C60.7344 45.3203 59.9062 44.5391 58.7969 43.9766C57.6875 43.3984 56.2812 43.1094 54.5781 43.1094C52.9688 43.1094 51.6406 43.3516 50.5938 43.8359C49.5469 44.3203 48.7656 44.9766 48.25 45.8047C47.75 46.6328 47.5 47.5781 47.5 48.6406C47.5 49.3594 47.6484 50.0156 47.9453 50.6094C48.2578 51.1875 48.7344 51.7266 49.375 52.2266C50.0312 52.7266 50.8594 53.1875 51.8594 53.6094C52.875 54.0312 54.0859 54.4375 55.4922 54.8281C57.4297 55.375 59.1016 55.9844 60.5078 56.6562C61.9141 57.3281 63.0703 58.0859 63.9766 58.9297C64.8984 59.7578 65.5781 60.7031 66.0156 61.7656C66.4688 62.8125 66.6953 64 66.6953 65.3281C66.6953 66.7188 66.4141 67.9766 65.8516 69.1016C65.2891 70.2266 64.4844 71.1875 63.4375 71.9844C62.3906 72.7812 61.1328 73.3984 59.6641 73.8359C58.2109 74.2578 56.5859 74.4688 54.7891 74.4688C53.2109 74.4688 51.6562 74.25 50.125 73.8125C48.6094 73.375 47.2266 72.7188 45.9766 71.8438C44.7422 70.9688 43.75 69.8906 43 68.6094C42.2656 67.3125 41.8984 65.8125 41.8984 64.1094H46.3984C46.3984 65.2812 46.625 66.2891 47.0781 67.1328C47.5312 67.9609 48.1484 68.6484 48.9297 69.1953C49.7266 69.7422 50.625 70.1484 51.625 70.4141C52.6406 70.6641 53.6953 70.7891 54.7891 70.7891C56.3672 70.7891 57.7031 70.5703 58.7969 70.1328C59.8906 69.6953 60.7188 69.0703 61.2812 68.2578C61.8594 67.4453 62.1484 66.4844 62.1484 65.375Z" fill="#64FFDA"/>
</svg>
